<svg xmlns:xlink="http://www.w3.org/1999/xlink" xmlns="http://www.w3.org/2000/svg" width="154" height="154" viewBox="0 0 154 154">
    <g fill="none" fill-rule="evenodd" transform="translate(40 40)">
        <circle cx="44.424" cy="44.424" r="44.424" fill="#0069E0"/>
        <g>
            <path fill="#FFF" d="M35.476 8.6c1.13 1.13 1.13 2.961 0 4.091l-5.737 5.737c1.13-1.13 2.96-1.13 4.09 0s1.13 2.961 0 4.09l-1.925 1.927c1.13-1.13 2.96-1.13 4.09 0s1.13 2.96 0 4.09l-1.472 1.473c1.13-1.13 2.961-1.13 4.09 0 1.13 1.13 1.13 2.96 0 4.09l-6.8 6.801c-4.519 4.519-11.845 4.519-16.363 0-3.092-3.092-4.068-7.498-2.929-11.42.803-3.583.278-7.015-1.573-10.294-.705-1.249-.421-2.823.675-3.747 1.14-.961 2.826-.888 3.878.168l4.43 4.449L31.385 8.6c1.13-1.13 2.961-1.13 4.09 0z" transform="translate(19.129 19.841)"/>
            <path stroke="#54A2F2" stroke-linecap="round" stroke-width="3.5" d="M14.653 5.189L16.549 8.927M23.44 2.402L22.828 7.058" transform="translate(19.129 19.841)"/>
        </g>
    </g>
</svg>