<svg xmlns:xlink="http://www.w3.org/1999/xlink" xmlns="http://www.w3.org/2000/svg" width="154" height="154" viewBox="0 0 154 154">
    <g fill="none" fill-rule="evenodd" transform="translate(40 40)">
        <circle cx="44.424" cy="44.424" r="44.424" fill="#F3C935"/>
        <path fill="#FFF" d="M27.761 32.485L42.39 25.97c1.294-.577 2.773-.577 4.068 0l14.629 6.515c1.168.52 1.878 1.724 1.768 2.998l-.97 11.245c-.533 6.175-3.919 11.748-9.154 15.068-5.071 3.216-11.543 3.216-16.615 0-5.235-3.32-8.62-8.893-9.153-15.068l-.97-11.245c-.11-1.274.6-2.478 1.768-2.998z"/>
        <path fill="#E9BF29" d="M44.424 38.126c1.775 0 3.214 1.44 3.214 3.215 0 1.272-.739 2.372-1.812 2.893l.44 7.143c.034.552-.385 1.026-.936 1.06l-.031.001-1.566.001c-.552 0-1-.448-1-1l.001-.046.33-7.138c-1.095-.513-1.855-1.625-1.855-2.914 0-1.775 1.44-3.215 3.215-3.215z"/>
    </g>
</svg>